<svg xmlns="http://www.w3.org/2000/svg" xmlns:lucid="lucid" width="145" height="134"><g lucid:page-tab-id="0_0" stroke="#000" stroke-opacity="0" stroke-width="3"><path d="M117 40.3c0-.86.24-2.05.24-3v-.15C117 20.45 103.42 7.07 86.8 7.23c-10.06-.24-18.72 4.1-24.58 12.2-3.74-2.47-7.6-3.58-12.17-3.5-12.64 0-22.82 10.13-22.94 22.8v1.82C18.93 44.43 14 52.2 14 61.2v.64c.47 14 12.3 25.02 26.22 24.54H105.42c14.04.16 25.5-11.08 25.63-25.17.12-9.4-5.27-17.4-14.05-20.9z" fill="#59b4d9"/><path d="M69.76 94.5l2.46 5.84-5.6 9.8 6.13 6.05 9.98-4.72 5.9 2.47 3.04 9.27.3 1.04h8.65l3.65-10.3 5.8-2.48 8.65 4.5 1.12.5 6.04-6.05-4.62-9.56 2.46-5.9 9.24-3.08 1.04-.3V82.9l-10.2-3.66-2.47-5.83 4.4-8.67.6-1.13-5.9-6.05-9.68 4.7-5.9-2.46-3.04-9.27-.6-1.05H93l-3.64 10.32-5.8 2.47-8.65-4.5-1.1-.52-5.75 6.95 4.17 8.9-2.46 5.83-9.24 3.07-1.04.6v8.22zm15.06-7.47c0-6.65 5.36-12.03 12-12.03 6.55 0 11.92 5.38 11.92 11.96 0 6.65-5.37 12.04-11.93 12.04-6.54.07-11.9-5.16-11.98-11.74v-.23z" fill="#fcd116"/><path d="M32.56 115.4l2.26 2.43-.96 5.82 4.1 1.9 4.07-4.13 3.33.1 3.18 4.02.35.46 4.24-1.58-.07-5.74 2.45-2.27 5.06.66.65.04 1.88-4.08-4.02-3.9.16-3.35 3.98-3.2.46-.34-1.57-4.28-5.7.08-2.26-2.43.6-5.08.1-.62-4-1.96-3.95 4.08-3.34-.15-3.18-3.97-.46-.42-4.07 1.5.08 5.74-2.4 2.27-5.07-.62-.62-.08-1.6 4.47 3.67 3.62-.14 3.34-4 3.2-.4.46 1.5 4.04zm6.1-6.47c-1.23-3.23.45-6.85 3.7-8.05 3.23-1.23 6.83.46 8.06 3.7 1.2 3.28-.5 6.9-3.72 8.1-3.22 1.22-6.78-.4-8-3.6-.05-.03-.05-.1-.05-.15z" fill="#7fba00"/><path d="M30.43 72.76c0-9.68 4.88-17.15 13.98-21.87V49c.3-13.6 11.46-24.38 25.08-24.14 4.5.07 8.26 1.18 12.2 3.54 6.3-8.74 15.5-13.46 26.2-13.46C101.77 9.6 94.9 7 86.83 7c-10.04 0-18.68 4.33-24.6 12.43-3.84-2.44-7.7-3.54-12.2-3.54-12.57 0-22.8 10.2-22.9 22.8v1.9C18.88 44.43 14 52.14 14 61.26c0 11.88 8.07 21.95 19.7 24.4-2.33-4.18-3.37-8.2-3.27-12.9z" fill="#fff" fill-opacity=".2"/></g></svg>